<?xml version="1.0" encoding="UTF-8"?>
<svg width="100pt" height="100pt" version="1.1" viewBox="0 0 100 100" xmlns="http://www.w3.org/2000/svg">
 <path d="m9 13c-2.1797 0-4 1.8203-4 4v66c0 2.1797 1.8203 4 4 4h82c2.1797 0 4-1.8203 4-4v-66c0-2.1797-1.8203-4-4-4zm0 4h82v16h-82zm18 4c-2.2109 0-4 1.7891-4 4s1.7891 4 4 4 4-1.7891 4-4-1.7891-4-4-4zm46 0c-2.2109 0-4 1.7891-4 4s1.7891 4 4 4 4-1.7891 4-4-1.7891-4-4-4zm-64 16h82v46h-82zm11 7v14h12v-14zm16 0v14h12v-14zm16 0v14h12v-14zm16 0v14h12v-14zm-48 18v14h12v-14zm16 0v14h12v-14zm16 0v14h12v-14z"/>
</svg>
