<?xml version="1.0" encoding="UTF-8"?>
<svg width="100pt" height="100pt" version="1.1" viewBox="0 0 100 100" xmlns="http://www.w3.org/2000/svg">
 <path d="m14 21c-4.3984 0-8 3.6016-8 8v42c0 4.3984 3.6016 8 8 8h72c4.3984 0 8-3.6016 8-8v-42c0-4.3984-3.6016-8-8-8zm0 4h72c2.25 0 4 1.75 4 4v42c0 2.25-1.75 4-4 4h-72c-2.25 0-4-1.75-4-4v-42c0-2.25 1.75-4 4-4zm4.625 7.9688c-0.8125 0.039062-1.5195 0.57031-1.7891 1.3398-0.26563 0.76562-0.042969 1.6211 0.57031 2.1602l15.25 13.781-15.219 13.219c-0.40625 0.34766-0.65234 0.83984-0.69531 1.3711-0.039063 0.53125 0.13672 1.0586 0.48437 1.4609 0.35156 0.40234 0.84375 0.65234 1.3789 0.6875 0.53125 0.039063 1.0547-0.13672 1.457-0.48828l15.594-13.562 8.7188 7.875c3.168 2.8594 8.0195 2.8867 11.188 0.03125l8.75-7.9062 15.625 13.562c0.40234 0.34766 0.92578 0.52734 1.457 0.48828 0.53516-0.035156 1.0273-0.28516 1.3789-0.6875 0.34766-0.40234 0.52344-0.92969 0.48437-1.4609-0.042968-0.53125-0.28906-1.0234-0.69531-1.3711l-15.25-13.219 15.281-13.781c0.82031-0.74219 0.88281-2.0078 0.14062-2.8281s-2.0078-0.88281-2.8281-0.14062l-27.031 24.344c-1.6953 1.5273-4.1211 1.5273-5.8125 0l-26.969-24.344c-0.39844-0.36719-0.92578-0.55859-1.4688-0.53125z"/>
</svg>
