<!-- Generated by IcoMoon.io -->
<svg version="1.1" xmlns="http://www.w3.org/2000/svg" width="32" height="32" viewBox="0 0 32 32">
<title>etsy</title>
<path fill="#f45800" d="M11.456 3.26c0-0.434 0.044-0.694 0.784-0.694h9.956c1.74 0 2.696 1.48 3.39 4.26l0.566 2.22h1.696c0.304-6.306 0.566-9.046 0.566-9.046s-4.26 0.48-6.784 0.48h-12.74l-6.82-0.22v1.826l2.3 0.436c1.61 0.32 2 0.66 2.132 2.14 0 0 0.14 4.36 0.14 11.52 0 7.18-0.12 11.48-0.12 11.48 0 1.3-0.52 1.78-2.12 2.1l-2.3 0.44v1.8l6.84-0.22h11.4c2.58 0 8.52 0.22 8.52 0.22 0.14-1.56 1-8.64 1.14-9.42h-1.6l-1.7 3.88c-1.34 3.040-3.3 3.26-5.48 3.26h-6.542c-2.174 0-3.22-0.86-3.22-2.74v-9.922s4.828 0 6.394 0.13c1.22 0.086 1.956 0.434 2.348 2.13l0.52 2.26h1.88l-0.12-5.696 0.26-5.74h-1.86l-0.6 2.52c-0.38 1.656-0.64 1.96-2.34 2.134-2.22 0.22-6.42 0.18-6.42 0.18v-11.718z"></path>
</svg>
