<?xml version="1.0" encoding="UTF-8"?>
<svg width="100pt" height="100pt" version="1.1" viewBox="0 0 100 100" xmlns="http://www.w3.org/2000/svg">
 <path d="m17.121 45.68zm80.48 4.7617l-13.602 32.34c-0.33203 0.79297-1.1406 1.2852-2 1.2188h-78c-0.62109 0.015625-1.2148-0.25391-1.6055-0.73828-0.39062-0.48047-0.53906-1.1172-0.39453-1.7227v-58.82c-0.078125-3.4688 2.543-6.4023 6-6.7188h14.359c1.6836 0.11719 3.25 0.91016 4.3398 2.1992l6.6016 7c0.37891 0.42969 0.89453 0.71484 1.4609 0.80078h48c3.2383 0 5.2383 2.1211 5.2383 5.6992v10.301h4c2.0586-0.007812 3.9844 1.0234 5.1211 2.7383 1.1055 1.7031 1.2773 3.8477 0.45703 5.7031zm-91.602 21.559l11.121-26.32c0.94922-2.2656 3.1836-3.7227 5.6406-3.6797h61.238v-10.301c0-1.6992-0.5-1.6992-1.1797-1.6992h-48c-1.6562-0.0625-3.2148-0.78516-4.3398-2l-6.6016-7c-0.35547-0.48828-0.87109-0.84375-1.457-1h-14.422c-1.2148 0.33203-2.043 1.4609-2 2.7188zm87.719-25.059c-0.38281-0.57812-1.0234-0.92969-1.7188-0.94141h-69.238c-0.86719-0.0625-1.6758 0.4375-2 1.2383l-13.82 32.762h73.801l13.16-31.121h-0.003906c0.28125-0.63281 0.21484-1.3672-0.17969-1.9375z"/>
</svg>
