<?xml version="1.0" encoding="UTF-8"?>
<svg width="100pt" height="100pt" version="1.1" viewBox="0 0 100 100" xmlns="http://www.w3.org/2000/svg">
 <g>
  <path d="m50 81.25c-0.99219 0-1.9219-0.46875-2.5078-1.2617-1.0469-1.4102-25.617-34.746-25.617-51.863 0-15.508 12.617-28.125 28.125-28.125s28.125 12.617 28.125 28.125c0 17.117-24.57 50.453-25.617 51.863-0.58594 0.79297-1.5156 1.2617-2.5078 1.2617zm0-75c-12.062 0-21.875 9.8125-21.875 21.875 0 11.172 14.039 33.492 21.875 44.648 7.8359-11.16 21.875-33.484 21.875-44.648 0-12.062-9.8164-21.875-21.875-21.875z"/>
  <path d="m50 40.625c-6.8945 0-12.5-5.6055-12.5-12.5s5.6055-12.5 12.5-12.5 12.5 5.6055 12.5 12.5-5.6055 12.5-12.5 12.5zm0-18.75c-3.4453 0-6.25 2.8047-6.25 6.25s2.8047 6.25 6.25 6.25 6.25-2.8047 6.25-6.25-2.8047-6.25-6.25-6.25z"/>
  <path d="m50 100c-19.695 0-40.625-6.1016-40.625-17.41 0-5.6094 5.2695-10.465 14.832-13.68 1.6367-0.53906 3.4102 0.33203 3.957 1.9688 0.55078 1.6328-0.33203 3.4102-1.9648 3.9609-7.8047 2.6172-10.574 5.8125-10.574 7.75 0 4.5508 13.391 11.16 34.375 11.16s34.375-6.6094 34.375-11.16c0-1.9375-2.7734-5.1328-10.574-7.7539-1.6328-0.55469-2.5195-2.3203-1.9688-3.9609 0.55469-1.6328 2.3242-2.5117 3.9609-1.9688 9.5625 3.2188 14.832 8.0781 14.832 13.684 0 11.309-20.93 17.41-40.625 17.41z"/>
 </g>
</svg>
