<?xml version="1.0" encoding="UTF-8"?>
<svg width="100pt" height="100pt" version="1.1" viewBox="0 0 100 100" xmlns="http://www.w3.org/2000/svg">
 <path d="m15.031 22c-2.5117 0-4.9414 0.66797-6.6562 2.375s-2.375 4.125-2.375 6.625v38c0 2.4961 0.68359 4.918 2.4062 6.625s4.1562 2.375 6.6875 2.375h69.938c2.4844 0 4.9258-0.68359 6.625-2.4062s2.3438-4.1562 2.3438-6.6875v-38c0-2.4688-0.6875-4.875-2.375-6.5625s-4.0625-2.3438-6.5312-2.3438zm0.96875 6h68l-32.5 26.344c-1.1211 0.52734-1.8789 0.52734-3 0zm-4 4.4688l21.531 17.438-21.531 18.344zm76 0v35.781l-21.531-18.344zm-49.75 21.281c2.4844 1.8867 4.8828 4.1641 7.4062 5.9062 2.7148 1.3594 5.9727 1.3594 8.6875 0 2.5156-1.8086 4.9609-3.9297 7.4062-5.9062l21.438 18.25h-66.375z"/>
</svg>
