<!-- Generated by IcoMoon.io -->
<svg version="1.1" xmlns="http://www.w3.org/2000/svg" width="32" height="32" viewBox="0 0 32 32">
<title>paypal</title>
<path fill="#00457c" d="M9.226 32h-4.14c-0.886 0-1.448-0.708-1.248-1.572l0.2-0.9h2.762c0.888 0 1.78-0.71 1.976-1.574l1.42-6.124c0.2-0.864 1.088-1.572 1.974-1.572h1.176c5.052 0 8.98-1.040 11.788-3.12s4.212-4.8 4.212-8.18c0-1.5-0.26-2.74-0.784-3.72 0-0.020-0.020-0.040-0.020-0.060l0.18 0.1c1 0.62 1.76 1.42 2.28 2.42 0.54 1 0.8 2.24 0.8 3.72 0 3.38-1.4 6.1-4.22 8.18-2.8 2.060-6.74 3.1-11.78 3.1h-1.2c-0.88 0-1.78 0.7-1.98 1.58l-1.42 6.14c-0.2 0.86-1.080 1.56-1.96 1.56zM5.656 28.406h-4.14c-0.884 0-1.446-0.706-1.248-1.572l5.832-25.26c0.2-0.868 1.086-1.574 1.972-1.574h8.62c1.86 0 3.48 0.13 4.866 0.384 1.38 0.254 2.56 0.692 3.58 1.32 0.98 0.62 1.76 1.43 2.26 2.426 0.52 0.996 0.78 2.24 0.78 3.728 0 3.38-1.4 6.1-4.22 8.16-2.8 2.080-6.74 3.1-11.78 3.1h-1.178c-0.88 0-1.772 0.7-1.97 1.56l-1.414 6.12c-0.2 0.86-1.090 1.56-1.98 1.56zM15.584 5.246h-1.352c-0.888 0-1.776 0.706-1.974 1.57l-1.24 5.36c-0.2 0.866 0.36 1.572 1.24 1.572h1.020c2.22 0 3.96-0.456 5.2-1.36 1.24-0.914 1.86-2.206 1.86-3.884 0-1.106-0.4-1.926-1.2-2.452-0.8-0.54-2-0.808-3.58-0.808z"></path>
</svg>
