<?xml version="1.0" encoding="UTF-8"?>
<svg width="100pt" height="100pt" version="1.1" viewBox="0 0 100 100" xmlns="http://www.w3.org/2000/svg">
 <g>
  <path d="m93.398 11.5c-1.1016-1.1016-2.5-1.6016-4-1.5l-3.3008 0.19922c-0.19922-0.30078-0.30078-0.5-0.60156-0.69922-1.1992-1.1992-2.8008-1.8984-4.6016-1.6992l-25.594 1.8008c-2.8984 0.19922-6.8008 2-8.8984 4l-39.602 39.598c-2.3984 2.3984-2.3984 6.3984 0 8.8984l25.801 25.801c1.1992 1.1992 2.8008 1.8008 4.3984 1.8008 0.89844 0 1.8008-0.19922 2.6016-0.60156l1.6016 1.6016c0.89844 0.89844 2.1992 1.3984 3.6016 1.3984h0.60156c1.5-0.19922 3-0.89844 4.1016-2l39.602-39.602c2.1016-2.1016 3.8008-6 4-8.8984l1.8906-25.496c0.10156-1.7031-0.5-3.4023-1.6016-4.6016zm-58.297 74l-25.801-25.801c-1.1016-1.1016-1.1016-2.8984 0-4l39.5-39.699c1.5-1.5 4.6016-2.8984 6.6992-3.1016l25.602-1.8008h0.19922c0.69922 0 1.1992 0.19922 1.6016 0.69922 0.39844 0.39844 0.60156 1.1016 0.60156 1.6992l-1.8008 25.602c-0.10156 2.1016-1.6016 5.1992-3.1016 6.6992l-39.5 39.703c-1 1.1016-2.9023 1.1016-4 0zm54.699-44c-0.10156 2.1016-1.6016 5.1992-3.1016 6.6992l-39.598 39.602c-0.60156 0.60156-1.3008 0.89844-2 1-0.30078 0-1 0-1.3984-0.39844l-1.3008-1.3008 38.699-38.699c2.1016-2.1016 3.8008-6 4-8.8984l1.8984-25.703v-0.19922l2.6016-0.19922c0.5 0 1 0.10156 1.3984 0.5 0.5 0.5 0.69922 1.1992 0.60156 1.8984z"/>
  <path d="m70.5 33c4.3984 0 8-3.6016 8-8s-3.6016-8-8-8-8 3.6016-8 8 3.6016 8 8 8zm0-12.602c2.5 0 4.6016 2 4.6016 4.6016s-2 4.6016-4.6016 4.6016-4.6016-2-4.6016-4.6016 2.1016-4.6016 4.6016-4.6016z"/>
 </g>
</svg>
