<?xml version="1.0" encoding="UTF-8"?>
<svg width="100pt" height="100pt" version="1.1" viewBox="0 0 100 100" xmlns="http://www.w3.org/2000/svg">
 <g>
  <path d="m50.195 92.598h-36.621c-3.4961 0-5.7812-2.1875-5.8398-5.6641-0.039063-2.4805-0.058594-4.9414 0.039063-7.4219 0.11719-2.9297 1.543-5.1758 4.082-6.5625 8.3398-4.5508 16.719-9.0039 25.059-13.535 0.60547-0.33203 0.97656-0.019531 1.4258 0.21484 7.1289 3.7305 14.395 4.043 21.816 0.9375 0.21484-0.078125 0.44922-0.13672 0.625-0.29297 1.543-1.3086 2.9297-0.78125 4.5312 0.097656 7.4805 4.1211 15.02 8.1641 22.559 12.188 3.2617 1.7383 4.8633 4.3555 4.8047 8.0469-0.039062 2.0898 0 4.1602 0 6.25-0.019531 3.457-2.3242 5.7422-5.7617 5.7422h-36.719z"/>
  <path d="m49.59 57.656c-6.875-0.23438-12.578-3.6328-16.777-9.668-6.875-9.9023-6.0547-23.965 1.8164-32.988 8.5547-9.7852 22.734-9.7266 31.211 0.11719 9.0039 10.469 8.4375 26.992-1.3086 36.484-3.9844 3.8867-8.75 5.9766-14.941 6.0547z"/>
 </g>
</svg>
