<!-- Generated by IcoMoon.io -->
<svg version="1.1" xmlns="http://www.w3.org/2000/svg" width="32" height="32" viewBox="0 0 32 32">
<title>wordpress</title>
<path fill="#21759b" d="M28.624 9.1c1.12 2.048 1.76 4.4 1.76 6.9 0 5.306-2.876 9.94-7.152 12.434l4.394-12.704c0.82-2.052 1.094-3.694 1.094-5.152 0-0.54-0.036-1.040-0.096-1.48zM17.984 9.238c0.864-0.040 1.644-0.14 1.644-0.14 0.776-0.1 0.684-1.24-0.090-1.2 0 0-2.34 0.18-3.84 0.18-1.42 0-3.8-0.2-3.8-0.2-0.78-0.040-0.88 1.14-0.1 1.18 0 0 0.72 0.080 1.5 0.12l2.24 6.14-3.16 9.44-5.238-15.558c0.864-0.040 1.644-0.134 1.644-0.134 0.78-0.1 0.688-1.24-0.088-1.194 0 0-2.328 0.184-3.832 0.184-0.266 0-0.584-0.010-0.92-0.020 2.604-3.836 7.036-6.416 12.056-6.416 3.744 0 7.154 1.43 9.714 3.776-0.060-0.004-0.12-0.012-0.186-0.012-1.414 0-2.416 1.23-2.416 2.552 0 1.186 0.684 2.19 1.412 3.374 0.548 0.96 1.188 2.19 1.188 3.968 0 1.22-0.474 2.66-1.096 4.64l-1.434 4.78-5.2-15.48zM16 30.38c-1.412 0-2.774-0.206-4.064-0.584l4.316-12.54 4.42 12.114c0.032 0.070 0.066 0.136 0.104 0.2-1.494 0.524-3.1 0.814-4.776 0.814zM1.614 16c0-2.086 0.448-4.066 1.246-5.854l6.86 18.8c-4.794-2.332-8.104-7.252-8.104-12.946zM16 0c-8.82 0-16 7.18-16 16s7.18 16 16 16 16-7.18 16-16-7.18-16-16-16z"></path>
</svg>
