<!-- Generated by IcoMoon.io -->
<svg version="1.1" xmlns="http://www.w3.org/2000/svg" width="32" height="32" viewBox="0 0 32 32">
<title>youtube</title>
<path fill="#cd201f" d="M0 14.69v2.52c0 2.59 0.32 5.18 0.32 5.18s0.312 2.2 1.272 3.174c1.216 1.274 2.816 1.234 3.528 1.368 2.56 0.246 10.88 0.32 10.88 0.32s6.724-0.008 11.2-0.332c0.628-0.076 1.992-0.080 3.208-1.356 0.96-0.972 1.272-3.176 1.272-3.176s0.32-2.588 0.32-5.18v-2.516c0-2.592-0.32-5.18-0.32-5.18s-0.312-2.204-1.272-3.176c-1.216-1.276-2.58-1.28-3.208-1.356-4.476-0.324-11.2-0.332-11.2-0.332s-8.32 0.072-10.88 0.32c-0.712 0.134-2.312 0.094-3.528 1.368-0.96 0.974-1.272 3.174-1.272 3.174s-0.32 2.592-0.32 5.18zM12.696 20.15v-8.99l8.646 4.51-8.64 4.48z"></path>
</svg>
