<svg xmlns="http://www.w3.org/2000/svg" xmlns:xlink="http://www.w3.org/1999/xlink"><symbol viewBox="0 0 100 100" id="email" xmlns="http://www.w3.org/2000/svg"><path d="M14 21c-4.398 0-8 3.602-8 8v42c0 4.398 3.602 8 8 8h72c4.398 0 8-3.602 8-8V29c0-4.398-3.602-8-8-8zm0 4h72c2.25 0 4 1.75 4 4v42c0 2.25-1.75 4-4 4H14c-2.25 0-4-1.75-4-4V29c0-2.25 1.75-4 4-4zm4.625 7.969a2 2 0 0 0-1.219 3.5l15.25 13.78-15.219 13.22c-.406.347-.652.84-.695 1.37a2.005 2.005 0 0 0 1.863 2.148 1.99 1.99 0 0 0 1.457-.487l15.594-13.562 8.719 7.875c3.168 2.86 8.02 2.887 11.188.031l8.75-7.906L79.938 66.5a2.007 2.007 0 0 0 3.32-1.66 2.012 2.012 0 0 0-.695-1.371l-15.25-13.22 15.28-13.78a2.002 2.002 0 1 0-2.687-2.969l-27.03 24.344c-1.696 1.527-4.122 1.527-5.813 0L20.093 33.5a2.014 2.014 0 0 0-1.468-.531z"/></symbol><symbol viewBox="0 0 32 32" id="etsy" xmlns="http://www.w3.org/2000/svg"><title>etsy</title><path fill="#f45800" d="M11.456 3.26c0-.434.044-.694.784-.694h9.956c1.74 0 2.696 1.48 3.39 4.26l.566 2.22h1.696C28.152 2.74 28.414 0 28.414 0s-4.26.48-6.784.48H8.89L2.07.26v1.826l2.3.436c1.61.32 2 .66 2.132 2.14 0 0 .14 4.36.14 11.52 0 7.18-.12 11.48-.12 11.48 0 1.3-.52 1.78-2.12 2.1l-2.3.44v1.8l6.84-.22h11.4c2.58 0 8.52.22 8.52.22.14-1.56 1-8.64 1.14-9.42h-1.6l-1.7 3.88c-1.34 3.04-3.3 3.26-5.48 3.26H14.68c-2.174 0-3.22-.86-3.22-2.74V17.06s4.828 0 6.394.13c1.22.086 1.956.434 2.348 2.13l.52 2.26h1.88l-.12-5.696.26-5.74h-1.86l-.6 2.52c-.38 1.656-.64 1.96-2.34 2.134-2.22.22-6.42.18-6.42.18V3.26z"/></symbol><symbol viewBox="0 0 32 32" id="facebook" xmlns="http://www.w3.org/2000/svg"><title>facebook</title><path fill="#3b5998" d="M30.234 0H1.766C.79 0 0 .79 0 1.766v28.468C0 31.21.79 32 1.766 32h15.326V19.608H12.92V14.78h4.172v-3.566c0-4.132 2.524-6.38 6.212-6.38 1.766 0 3.284.128 3.726.188v4.32h-2.56c-2 0-2.39.96-2.39 2.36v3.08h4.78l-.62 4.84h-4.16V32h8.154C31.21 32 32 31.21 32 30.234V1.766C32 .79 31.21 0 30.234 0z"/></symbol><symbol viewBox="0 0 32 32" id="flickr" xmlns="http://www.w3.org/2000/svg"><title>flickr</title><path fill="#0063dc" d="M0 16a7.42 7.42 0 0 0 7.42 7.42c4.1 0 7.426-3.32 7.426-7.42S11.52 8.58 7.42 8.58A7.421 7.421 0 0 0 0 16zm17.154 0a7.42 7.42 0 0 0 7.424 7.42C28.66 23.42 32 20.1 32 16s-3.324-7.42-7.42-7.42c-4.1 0-7.426 3.32-7.426 7.42z"/></symbol><symbol viewBox="0 0 100 100" id="folder" xmlns="http://www.w3.org/2000/svg"><path d="M17.121 45.68zm80.48 4.762l-13.602 32.34a2.003 2.003 0 0 1-2 1.219h-78a1.994 1.994 0 0 1-1.606-.739A1.998 1.998 0 0 1 2 81.54V22.72a6.599 6.599 0 0 1 6-6.72h14.359c1.684.118 3.25.91 4.34 2.2l6.601 7c.38.43.895.715 1.461.8h48C86 26 88 28.123 88 31.7V42h4a6.12 6.12 0 0 1 5.12 2.74 6.01 6.01 0 0 1 .458 5.702zM5.999 72L17.12 45.68A6 6 0 0 1 22.76 42H84V31.7c0-1.7-.5-1.7-1.18-1.7h-48a6.236 6.236 0 0 1-4.34-2l-6.602-7a2.651 2.651 0 0 0-1.457-1H7.998a2.724 2.724 0 0 0-2 2.72zm87.719-25.06a2.1 2.1 0 0 0-1.719-.94H22.761a2 2 0 0 0-2 1.238L6.941 80h73.801l13.16-31.121h-.004a1.987 1.987 0 0 0-.18-1.938z"/></symbol><symbol viewBox="0 0 32 32" id="googleplus" xmlns="http://www.w3.org/2000/svg"><title>googleplus</title><path fill="#dc4e41" d="M10.18 14.546v3.49h5.78c-.232 1.5-1.746 4.394-5.774 4.394-3.474 0-6.31-2.88-6.31-6.43s2.83-6.43 6.304-6.43c1.98 0 3.304.844 4.06 1.572l2.764-2.66c-1.774-1.66-4.074-2.66-6.82-2.66C4.55 5.82 0 10.38 0 16s4.552 10.18 10.18 10.18c5.88 0 9.776-4.13 9.776-9.948 0-.668-.072-1.18-.16-1.686H10.18zm21.82 0h-2.91v-2.91h-2.91v2.91h-2.908v2.908h2.91v2.91h2.92v-2.91H32z"/></symbol><symbol viewBox="0 0 32 32" id="instagram" xmlns="http://www.w3.org/2000/svg"><title>instagram</title><path fill="#e4405f" d="M16 0c-4.346 0-4.89.02-6.596.096C7.7.176 6.54.444 5.52.84a7.815 7.815 0 0 0-2.834 1.846A7.773 7.773 0 0 0 .84 5.52C.444 6.54.174 7.7.096 9.404.016 11.11 0 11.654 0 16s.02 4.89.096 6.596c.08 1.704.348 2.866.744 3.884a7.815 7.815 0 0 0 1.846 2.834c.888.89 1.78 1.44 2.834 1.846 1.02.396 2.18.666 3.884.744 1.706.08 2.25.096 6.596.096s4.89-.02 6.596-.096c1.704-.08 2.866-.348 3.884-.744a7.815 7.815 0 0 0 2.834-1.846 7.773 7.773 0 0 0 1.846-2.834c.396-1.02.666-2.18.744-3.884.08-1.706.096-2.25.096-6.596s-.02-4.89-.096-6.596c-.08-1.704-.348-2.866-.744-3.884a7.815 7.815 0 0 0-1.846-2.834A7.773 7.773 0 0 0 26.48.84C25.46.444 24.3.174 22.596.096 20.89.016 20.346 0 16 0zm0 2.88c4.272 0 4.78.02 6.466.096 1.56.072 2.406.332 2.97.552.748.29 1.28.636 1.84 1.196s.906 1.092 1.196 1.84c.22.564.48 1.41.552 2.97.076 1.688.094 2.194.094 6.466s-.02 4.78-.1 6.466c-.08 1.56-.34 2.406-.56 2.97-.3.748-.64 1.28-1.2 1.84s-1.1.906-1.84 1.196c-.56.22-1.42.48-2.98.552-1.7.076-2.2.094-6.48.094s-4.78-.02-6.48-.1c-1.56-.08-2.42-.34-2.98-.56-.76-.3-1.28-.64-1.84-1.2s-.92-1.1-1.2-1.84c-.22-.56-.48-1.42-.56-2.98-.06-1.68-.08-2.2-.08-6.46s.02-4.78.08-6.48c.08-1.56.34-2.42.56-2.98.28-.76.64-1.28 1.2-1.84s1.08-.92 1.84-1.2c.56-.22 1.4-.48 2.96-.56 1.7-.06 2.2-.08 6.48-.08zm0 4.904A8.215 8.215 0 0 0 7.784 16c0 4.54 3.68 8.216 8.216 8.216 4.54 0 8.216-3.68 8.216-8.216 0-4.54-3.68-8.216-8.216-8.216zm0 13.55a5.334 5.334 0 1 1 0-10.668 5.334 5.334 0 0 1 0 10.668zM26.46 7.46a1.92 1.92 0 1 1-3.841-.001 1.92 1.92 0 0 1 3.841.001z"/></symbol><symbol viewBox="0 0 32 32" id="linkedin" xmlns="http://www.w3.org/2000/svg"><title>linkedin</title><path fill="#0077b5" d="M27.264 27.27h-4.74v-7.426c0-1.772-.036-4.05-2.468-4.05-2.47 0-2.848 1.928-2.848 3.92v7.556h-4.74V12h4.552v2.08h.06c.636-1.2 2.184-2.466 4.494-2.466 4.8 0 5.69 3.16 5.69 7.274v8.376zM7.116 9.91a2.751 2.751 0 0 1-2.752-2.754A2.753 2.753 0 1 1 7.116 9.91zm2.376 17.36H4.74V12h4.752v15.27zM29.632 0H2.36C1.056 0 0 1.032 0 2.306v27.388C0 30.968 1.056 32 2.36 32h27.27c1.304 0 2.37-1.032 2.37-2.306V2.306C32 1.032 30.934 0 29.63 0z"/></symbol><symbol viewBox="0 0 32 32" id="paypal" xmlns="http://www.w3.org/2000/svg"><title>paypal</title><path fill="#00457c" d="M9.226 32h-4.14c-.886 0-1.448-.708-1.248-1.572l.2-.9H6.8c.888 0 1.78-.71 1.976-1.574l1.42-6.124c.2-.864 1.088-1.572 1.974-1.572h1.176c5.052 0 8.98-1.04 11.788-3.12s4.212-4.8 4.212-8.18c0-1.5-.26-2.74-.784-3.72 0-.02-.02-.04-.02-.06l.18.1c1 .62 1.76 1.42 2.28 2.42.54 1 .8 2.24.8 3.72 0 3.38-1.4 6.1-4.22 8.18-2.8 2.06-6.74 3.1-11.78 3.1h-1.2c-.88 0-1.78.7-1.98 1.58l-1.42 6.14c-.2.86-1.08 1.56-1.96 1.56zm-3.57-3.594h-4.14c-.884 0-1.446-.706-1.248-1.572L6.1 1.574C6.3.706 7.186 0 8.072 0h8.62c1.86 0 3.48.13 4.866.384 1.38.254 2.56.692 3.58 1.32.98.62 1.76 1.43 2.26 2.426.52.996.78 2.24.78 3.728 0 3.38-1.4 6.1-4.22 8.16-2.8 2.08-6.74 3.1-11.78 3.1H11c-.88 0-1.772.7-1.97 1.56l-1.414 6.12c-.2.86-1.09 1.56-1.98 1.56zm9.928-23.16h-1.352c-.888 0-1.776.706-1.974 1.57l-1.24 5.36c-.2.866.36 1.572 1.24 1.572h1.02c2.22 0 3.96-.456 5.2-1.36 1.24-.914 1.86-2.206 1.86-3.884 0-1.106-.4-1.926-1.2-2.452-.8-.54-2-.808-3.58-.808z"/></symbol><symbol viewBox="0 0 32 32" id="rss" xmlns="http://www.w3.org/2000/svg"><title>rss</title><path fill="orange" d="M25.6 32C25.6 17.956 14.044 6.4 0 6.4V0c17.554 0 32 14.446 32 32h-6.4zM4.388 23.22c2.42 0 4.39 1.97 4.39 4.392 0 2.42-1.98 4.388-4.4 4.388A4.384 4.384 0 0 1 0 27.612c0-2.42 1.966-4.39 4.388-4.39zM21.212 32h-6.22c0-8.226-6.766-14.994-14.992-14.994v-6.22c11.636 0 21.212 9.58 21.212 21.214z"/></symbol><symbol viewBox="0 0 32 32" id="spotify" xmlns="http://www.w3.org/2000/svg"><title>spotify</title><path fill="#1ed760" d="M16 0C7.2 0 0 7.2 0 16s7.2 16 16 16 16-7.2 16-16S24.88 0 16 0zm7.36 23.12c-.32.48-.88.64-1.36.32-3.76-2.32-8.48-2.8-14.08-1.52-.56.16-1.04-.24-1.2-.72-.16-.56.24-1.04.72-1.2 6.08-1.36 11.36-.8 15.52 1.76.56.24.64.88.4 1.36zm1.92-4.4c-.4.56-1.12.8-1.68.4-4.32-2.64-10.88-3.44-15.92-1.84-.64.16-1.36-.16-1.52-.8s.16-1.36.8-1.52c5.84-1.76 13.04-.88 18 2.16.48.24.72 1.04.32 1.6zm.16-4.48c-5.12-3.04-13.68-3.36-18.56-1.84-.8.24-1.6-.24-1.84-.96-.24-.8.24-1.6.96-1.84 5.68-1.68 15.04-1.36 20.96 2.16.72.4.96 1.36.56 2.08-.4.56-1.36.8-2.08.4z"/></symbol><symbol viewBox="0 0 100 100" id="tags" xmlns="http://www.w3.org/2000/svg"><path d="M93.398 11.5c-1.102-1.102-2.5-1.602-4-1.5l-3.3.2c-.2-.302-.302-.5-.602-.7-1.2-1.2-2.801-1.898-4.602-1.7L55.3 9.603c-2.898.199-6.8 2-8.898 4L6.8 53.2c-2.399 2.398-2.399 6.398 0 8.898l25.8 25.801c1.2 1.2 2.801 1.8 4.399 1.8.898 0 1.8-.198 2.602-.6l1.601 1.6c.899.9 2.2 1.4 3.602 1.4h.601c1.5-.2 3-.9 4.102-2l39.602-39.603c2.102-2.101 3.8-6 4-8.898l1.89-25.496c.102-1.703-.5-3.402-1.601-4.602zm-58.297 74L9.3 59.699a2.834 2.834 0 0 1 0-4L48.8 16c1.5-1.5 4.602-2.898 6.7-3.102l25.601-1.8h.2c.699 0 1.199.199 1.601.699.398.398.602 1.101.602 1.699l-1.801 25.602c-.102 2.102-1.602 5.2-3.102 6.7L39.101 85.5c-1 1.102-2.902 1.102-4 0zm54.699-44c-.102 2.102-1.602 5.2-3.102 6.7L47.1 87.8a3.48 3.48 0 0 1-2 1c-.3 0-1 0-1.398-.398l-1.3-1.301L81.1 48.403c2.102-2.102 3.801-6 4-8.898L87 13.802v-.2l2.601-.199c.5 0 1 .102 1.399.5.5.5.699 1.2.601 1.899z"/><path d="M70.5 33c4.398 0 8-3.602 8-8s-3.602-8-8-8-8 3.602-8 8 3.602 8 8 8zm0-12.602c2.5 0 4.602 2 4.602 4.602s-2 4.601-4.602 4.601-4.602-2-4.602-4.601S68 20.398 70.5 20.398z"/></symbol><symbol viewBox="0 0 32 32" id="twitter" xmlns="http://www.w3.org/2000/svg"><title>twitter</title><path fill="#1da1f2" d="M32 6.076c-1.18.52-2.44.874-3.77 1.034a6.598 6.598 0 0 0 2.886-3.632 13.557 13.557 0 0 1-4.17 1.58 6.565 6.565 0 0 0-11.356 4.48c0 .52.06 1.02.17 1.5-5.456-.26-10.294-2.88-13.532-6.84A6.444 6.444 0 0 0 1.34 7.5c0 2.28 1.16 4.286 2.92 5.464a6.556 6.556 0 0 1-2.974-.82v.08a6.57 6.57 0 0 0 5.266 6.44 6.673 6.673 0 0 1-1.73.228c-.42 0-.82-.04-1.22-.116a6.58 6.58 0 0 0 6.14 4.56 13.156 13.156 0 0 1-8.14 2.808c-.52 0-1.04-.03-1.56-.09a18.665 18.665 0 0 0 10.08 2.948c12.08 0 18.68-10 18.68-18.66 0-.28 0-.56-.02-.84 1.28-.92 2.4-2.08 3.28-3.4z"/></symbol><symbol viewBox="0 0 32 32" id="wordpressdotcom" xmlns="http://www.w3.org/2000/svg"><title>wordpress</title><path fill="#21759b" d="M28.624 9.1c1.12 2.048 1.76 4.4 1.76 6.9 0 5.306-2.876 9.94-7.152 12.434l4.394-12.704c.82-2.052 1.094-3.694 1.094-5.152 0-.54-.036-1.04-.096-1.48zm-10.64.138c.864-.04 1.644-.14 1.644-.14.776-.1.684-1.24-.09-1.2 0 0-2.34.18-3.84.18-1.42 0-3.8-.2-3.8-.2-.78-.04-.88 1.14-.1 1.18 0 0 .72.08 1.5.12l2.24 6.14-3.16 9.44L7.14 9.2c.864-.04 1.644-.134 1.644-.134.78-.1.688-1.24-.088-1.194 0 0-2.328.184-3.832.184-.266 0-.584-.01-.92-.02C6.548 4.2 10.98 1.62 16 1.62c3.744 0 7.154 1.43 9.714 3.776-.06-.004-.12-.012-.186-.012-1.414 0-2.416 1.23-2.416 2.552 0 1.186.684 2.19 1.412 3.374.548.96 1.188 2.19 1.188 3.968 0 1.22-.474 2.66-1.096 4.64l-1.434 4.78-5.2-15.48zM16 30.38c-1.412 0-2.774-.206-4.064-.584l4.316-12.54 4.42 12.114c.032.07.066.136.104.2a14.4 14.4 0 0 1-4.776.814zM1.614 16c0-2.086.448-4.066 1.246-5.854l6.86 18.8C4.926 26.614 1.616 21.694 1.616 16zM16 0C7.18 0 0 7.18 0 16s7.18 16 16 16 16-7.18 16-16S24.82 0 16 0z"/></symbol><symbol viewBox="0 0 32 32" id="youtube" xmlns="http://www.w3.org/2000/svg"><title>youtube</title><path fill="#cd201f" d="M0 14.69v2.52c0 2.59.32 5.18.32 5.18s.312 2.2 1.272 3.174c1.216 1.274 2.816 1.234 3.528 1.368 2.56.246 10.88.32 10.88.32s6.724-.008 11.2-.332c.628-.076 1.992-.08 3.208-1.356.96-.972 1.272-3.176 1.272-3.176s.32-2.588.32-5.18v-2.516c0-2.592-.32-5.18-.32-5.18s-.312-2.204-1.272-3.176c-1.216-1.276-2.58-1.28-3.208-1.356-4.476-.324-11.2-.332-11.2-.332s-8.32.072-10.88.32c-.712.134-2.312.094-3.528 1.368C.632 7.31.32 9.51.32 9.51S0 12.102 0 14.69zm12.696 5.46v-8.99l8.646 4.51-8.64 4.48z"/></symbol></svg>